<svg xmlns="http://www.w3.org/2000/svg" fill="none" viewBox="0 0 283 64"><path fill="black" d="m141.04 16 14.204 23.79L169.68 16H185L156.5 52.84l28.5 52.84H169.68l-14.436-23.79L141.04 81.68H125.76l28.5-52.84L125.76 16h15.28zm-10.12 58.78c-1.29 0-2.57-.22-3.78-.66-1.21-.44-2.31-1.11-3.28-2.01-.97-.9-1.74-2.01-2.29-3.33-.55-1.32-.82-2.81-.82-4.47 0-1.66.27-3.15.82-4.47.55-1.32 1.32-2.43 2.29-3.33.97-.9 2.07-1.57 3.28-2.01 1.21-.44 2.49-.66 3.78-.66s2.57.22 3.78.66c1.21.44 2.31 1.11 3.28 2.01.97.9 1.74 2.01 2.29 3.33.55 1.32.82 2.81.82 4.47 0 1.66-.27 3.15-.82 4.47-.55 1.32-1.32 2.43-2.29 3.33-.97.9-2.07 1.57-3.28 2.01-1.21.44-2.49.66-3.78.66zm10.36-40.29c-2.87 0-5.32.99-7.35 2.98-2.03 1.99-3.05 4.6-3.05 7.84 0 3.24 1.02 5.85 3.05 7.84 2.03 1.99 4.48 2.98 7.35 2.98 2.87 0 5.32-.99 7.35-2.98 2.03-1.99 3.05-4.6 3.05-7.84 0-3.24-1.02-5.85-3.05-7.84-2.03-1.99-4.48-2.98-7.35-2.98z"/></svg>